-----------------------------------------------------------------------------------
Movie Info
-----------------------------------------------------------------------------------
IMDb Link: imdb.com/title/tt0188830/
IMDb User Rating: 3.1/10 (97 vote)
Director: Leland Price
Writer: David Keith Miller
Plot Keywords: Lesbianism | Softcore | Lesbian Scene | Beautiful Woman | Female Nudity


Plot:
Mark Ritter and Lauren Hays star in this erotic drama about a female journalist who meets a successful gigolo. She thinks there's a story in his life of sex for money, so with his blessings she begins looking deeper into his career. However, the longer she researches his story, the more she finds herself becoming attracted to him, and she has to decide if she wants to be his biographer, his lover or his customer.


-----------------------------------------------------------------------------------
Media Info
-----------------------------------------------------------------------------------
General
Complete name                    : life.of.a.gigolo[1998]DVDRip-RDX.avi
Format                           : AVI
Format/Info                      : Audio Video Interleave
File size                        : 833 MiB
Duration                         : 1h 27mn
Overall bit rate                 : 1 329 Kbps
Writing application              : MediaCoder 0.6
Writing library                  : VirtualDub build 29963/release

Video
ID                               : 0
Format                           : MPEG-4 Visual
Format profile                   : Simple@L3
Format settings, BVOP            : No
Format settings, QPel            : No
Format settings, GMC             : No warppoints
Format settings, Matrix          : Default (H.263)
Codec ID                         : XVID
Codec ID/Hint                    : XviD
Duration                         : 1h 27mn
Bit rate                         : 1 192 Kbps
Width                            : 512 pixels
Height                           : 384 pixels
Display aspect ratio             : 4:3
Frame rate                       : 25.000 fps
Resolution                       : 24 bits
Colorimetry                      : 4:2:0
Scan type                        : Progressive
Bits/(Pixel*Frame)               : 0.242
Stream size                      : 747 MiB (90%)
Writing library                  : XviD 1.2.0.dev47 (UTC 2006-11-01)

Audio
ID                               : 1
Format                           : MPEG Audio
Format version                   : Version 1
Format profile                   : Layer 3
Codec ID                         : 55
Codec ID/Hint                    : MP3
Duration                         : 1h 27mn
Bit rate mode                    : Constant
Bit rate                         : 128 Kbps
Channel(s)                       : 2 channels
Sampling rate                    : 48.0 KHz
Resolution                       : 16 bits
Video delay                      : 16ms
Stream size                      : 80.2 MiB (10%)
Alignment                        : Split accross interleaves
Interleave, duration             : 40 ms (1.00 video frame)
Interleave, preload duration     : 500 ms


-----------------------------------------------------------------------------------
No spam, No Virus, No fakes, No crap.
Only quality torrents from ..RDX..
-----------------------------------------------------------------------------------